<?xml version="1.0" encoding="UTF-8" standalone="no"?>
<svg
   xmlns:dc="http://purl.org/dc/elements/1.1/"
   xmlns:cc="http://creativecommons.org/ns#"
   xmlns:rdf="http://www.w3.org/1999/02/22-rdf-syntax-ns#"
   xmlns:svg="http://www.w3.org/2000/svg"
   xmlns="http://www.w3.org/2000/svg"
   xmlns:xlink="http://www.w3.org/1999/xlink"
   width="160"
   height="160"
   id="svg2"
   version="1.1">
  <defs
     id="defs4">
    <linearGradient
       id="linearGradient33835">
      <stop
         style="stop-color:#000000;stop-opacity:1;"
         offset="0"
         id="stop33837" />
      <stop
         id="stop33839"
         offset="0.85714257"
         style="stop-color:#000000;stop-opacity:1" />
      <stop
         style="stop-color:#3e3e3e;stop-opacity:1;"
         offset="0.93571502"
         id="stop33845" />
      <stop
         style="stop-color:#000000;stop-opacity:1"
         offset="1"
         id="stop33841" />
    </linearGradient>
    <linearGradient
       id="linearGradient43475">
      <stop
         style="stop-color:#eeeeee;stop-opacity:1;"
         offset="0"
         id="stop43477" />
      <stop
         style="stop-color:#666666;stop-opacity:1;"
         offset="1"
         id="stop43479" />
    </linearGradient>
    <linearGradient
       id="linearGradient34000">
      <stop
         style="stop-color:#382f2e;stop-opacity:1"
         offset="0"
         id="stop34002" />
      <stop
         id="stop34004"
         offset="0.03018278"
         style="stop-color:#382f2e;stop-opacity:1" />
      <stop
         id="stop34006"
         offset="0.03018278"
         style="stop-color:#382f2e;stop-opacity:1" />
      <stop
         style="stop-color:#382f2e;stop-opacity:1"
         offset="1"
         id="stop34008" />
    </linearGradient>
    <linearGradient
       id="linearGradient7753">
      <stop
         id="stop7755"
         offset="0"
         style="stop-color:#000000;stop-opacity:0.3019608;" />
      <stop
         id="stop7757"
         offset="1"
         style="stop-color:#22002b;stop-opacity:0;" />
    </linearGradient>
    <linearGradient
       id="linearGradient14798">
      <stop
         style="stop-color:#ffffff;stop-opacity:0.3019608;"
         offset="0"
         id="stop14800" />
      <stop
         style="stop-color:#ffffff;stop-opacity:0;"
         offset="1"
         id="stop14802" />
    </linearGradient>
    <linearGradient
       id="linearGradient33787">
      <stop
         id="stop33789"
         offset="0"
         style="stop-color:#63585c;stop-opacity:1;" />
      <stop
         id="stop33791"
         offset="1"
         style="stop-color:#2d2829;stop-opacity:1;" />
    </linearGradient>
    <radialGradient
       r="2.5"
       fy="-501.47858"
       fx="0.81794727"
       cy="-501.47858"
       cx="0.81794727"
       gradientTransform="matrix(1.6373293,-0.94531247,-0.94531247,-1.6373293,-289.3932,-583.95016)"
       gradientUnits="userSpaceOnUse"
       id="radialGradient16249"
       xlink:href="#linearGradient43475" />
    <radialGradient
       r="10"
       fy="-50"
       fx="210"
       cy="-50"
       cx="210"
       gradientTransform="matrix(0.28359374,-0.49119878,0.49119878,0.28359374,187.32361,244.60572)"
       gradientUnits="userSpaceOnUse"
       id="radialGradient16251"
       xlink:href="#linearGradient43475" />
    <radialGradient
       r="4.3467994"
       fy="215.50014"
       fx="289.09375"
       cy="215.50014"
       cx="289.09375"
       gradientTransform="matrix(0,-0.99999999,0.99980485,0,7.5419223,419.45593)"
       gradientUnits="userSpaceOnUse"
       id="radialGradient16253"
       xlink:href="#linearGradient43475" />
    <radialGradient
       r="10"
       fy="-50"
       fx="210"
       cy="-50"
       cx="210"
       gradientTransform="matrix(0.28359374,-0.49119878,0.49119878,0.28359374,292.10486,278.85572)"
       gradientUnits="userSpaceOnUse"
       id="radialGradient16255"
       xlink:href="#linearGradient43475" />
    <radialGradient
       r="2.5"
       fy="-498.72348"
       fx="3.6491058"
       cy="-498.72348"
       cx="3.6491058"
       gradientTransform="matrix(1.6373293,0.94531247,-0.94531247,1.6373293,-149.42501,977.95592)"
       gradientUnits="userSpaceOnUse"
       id="radialGradient16257"
       xlink:href="#linearGradient43475" />
    <radialGradient
       r="10"
       fy="-50"
       fx="210"
       cy="-50"
       cx="210"
       gradientTransform="matrix(0.49119878,0.28359374,-0.28359374,0.49119878,174.85021,232.18579)"
       gradientUnits="userSpaceOnUse"
       id="radialGradient16259"
       xlink:href="#linearGradient43475" />
    <radialGradient
       r="2.5"
       fy="-501.67435"
       fx="3.338691"
       cy="-501.67435"
       cx="3.338691"
       gradientTransform="matrix(-0.94531248,1.6373293,-1.6373293,-0.94531248,-524.25,-209.34338)"
       gradientUnits="userSpaceOnUse"
       id="radialGradient16261"
       xlink:href="#linearGradient43475" />
    <radialGradient
       xlink:href="#linearGradient43475"
       id="radialGradient4024"
       gradientUnits="userSpaceOnUse"
       gradientTransform="matrix(-0.43829024,0.75914099,-0.75914099,-0.43829024,290.83876,2.0707587)"
       spreadMethod="pad"
       cx="210"
       cy="-50"
       fx="210"
       fy="-50"
       r="10" />
    <radialGradient
       xlink:href="#linearGradient14798"
       id="radialGradient4048"
       cx="257.50006"
       cy="197.36218"
       fx="257.50006"
       fy="197.36218"
       r="73.342575"
       gradientTransform="translate(0,1.3620206e-5)"
       gradientUnits="userSpaceOnUse" />
    <radialGradient
       xlink:href="#linearGradient14798"
       id="radialGradient4054"
       gradientUnits="userSpaceOnUse"
       gradientTransform="translate(0,1.3620206e-5)"
       cx="257.50006"
       cy="197.36218"
       fx="257.50006"
       fy="197.36218"
       r="73.342575" />
    <radialGradient
       xlink:href="#linearGradient14798"
       id="radialGradient4068"
       gradientUnits="userSpaceOnUse"
       gradientTransform="translate(0,1.3620206e-5)"
       cx="257.50006"
       cy="197.36218"
       fx="257.50006"
       fy="197.36218"
       r="73.342575" />
    <radialGradient
       xlink:href="#linearGradient14798"
       id="radialGradient4070"
       gradientUnits="userSpaceOnUse"
       gradientTransform="translate(0,1.3620206e-5)"
       cx="257.50006"
       cy="197.36218"
       fx="257.50006"
       fy="197.36218"
       r="73.342575" />
    <radialGradient
       xlink:href="#linearGradient14798"
       id="radialGradient4081"
       gradientUnits="userSpaceOnUse"
       gradientTransform="translate(0,1.3620206e-5)"
       cx="257.50006"
       cy="197.36218"
       fx="257.50006"
       fy="197.36218"
       r="73.342575" />
    <radialGradient
       xlink:href="#linearGradient14798"
       id="radialGradient4123"
       gradientUnits="userSpaceOnUse"
       gradientTransform="matrix(0,1.0690801,-1.0299766,0,458.34547,-57.950349)"
       cx="233.06587"
       cy="197.36218"
       fx="233.06587"
       fy="197.36218"
       r="73.342575" />
    <radialGradient
       xlink:href="#linearGradient14798"
       id="radialGradient4125"
       gradientUnits="userSpaceOnUse"
       gradientTransform="matrix(0,-1.0690801,-1.0299766,0,458.34547,449.36142)"
       cx="233.68759"
       cy="197.36218"
       fx="233.68759"
       fy="197.36218"
       r="73.342575" />
    <radialGradient
       xlink:href="#linearGradient33835"
       id="radialGradient4178"
       gradientUnits="userSpaceOnUse"
       gradientTransform="matrix(1.1863665,0,0,1.1863665,-21.29572,-33.978893)"
       cx="234.99998"
       cy="194.99994"
       fx="234.99998"
       fy="194.99994"
       r="65" />
    <radialGradient
       xlink:href="#linearGradient33835"
       id="radialGradient4180"
       gradientUnits="userSpaceOnUse"
       gradientTransform="matrix(1.0901605,0,0,1.0901605,1.3122771,-15.21907)"
       cx="234.99998"
       cy="194.99994"
       fx="234.99998"
       fy="194.99994"
       r="65" />
    <radialGradient
       xlink:href="#linearGradient14798"
       id="radialGradient4214"
       gradientUnits="userSpaceOnUse"
       gradientTransform="matrix(0.5859375,0,0,0.40513007,140.91452,156.19367)"
       cx="260"
       cy="238.85257"
       fx="260"
       fy="238.85257"
       r="54.28125" />
    <radialGradient
       xlink:href="#linearGradient7753"
       id="radialGradient4217"
       gradientUnits="userSpaceOnUse"
       gradientTransform="matrix(0.5859375,0,0,0.40513007,140.91452,170.00745)"
       cx="260"
       cy="117.97773"
       fx="260"
       fy="117.97773"
       r="54.28125" />
    <radialGradient
       xlink:href="#linearGradient34000"
       id="radialGradient4220"
       gradientUnits="userSpaceOnUse"
       gradientTransform="matrix(0.52283654,0,0,0.52283654,168.92687,130.49231)"
       cx="235"
       cy="195"
       fx="235"
       fy="195"
       r="65" />
    <radialGradient
       xlink:href="#linearGradient43475"
       id="radialGradient4229"
       gradientUnits="userSpaceOnUse"
       gradientTransform="matrix(0.22746896,-0.06095013,0.0609586,0.22750058,221.18997,203.24271)"
       spreadMethod="reflect"
       cx="257.50006"
       cy="197.35062"
       fx="257.50006"
       fy="197.35062"
       r="82.821831" />
    <linearGradient
       xlink:href="#linearGradient33835"
       id="linearGradient4233"
       gradientUnits="userSpaceOnUse"
       gradientTransform="matrix(0.78124998,0,0,0.78124998,143.35596,139.82953)"
       x1="127.88419"
       y1="120"
       x2="252.11581"
       y2="120" />
    <radialGradient
       xlink:href="#linearGradient43475"
       id="radialGradient4236"
       gradientUnits="userSpaceOnUse"
       gradientTransform="matrix(-0.03218349,-0.68181554,-4.0392607,0.19066404,273.60183,164.81897)"
       spreadMethod="reflect"
       cx="210.55183"
       cy="52.4063"
       fx="210.55183"
       fy="52.4063"
       r="82.821831" />
    <radialGradient
       xlink:href="#linearGradient43475"
       id="radialGradient4238"
       gradientUnits="userSpaceOnUse"
       gradientTransform="matrix(0.02082418,-0.4411657,2.6135856,0.12336831,134.52999,304.11824)"
       spreadMethod="reflect"
       cx="210.55183"
       cy="52.4063"
       fx="210.55183"
       fy="52.4063"
       r="82.821831" />
    <radialGradient
       xlink:href="#linearGradient33835"
       id="radialGradient4273"
       gradientUnits="userSpaceOnUse"
       gradientTransform="matrix(1.1863665,0,0,1.1863665,-21.29572,-33.978893)"
       cx="234.99998"
       cy="194.99994"
       fx="234.99998"
       fy="194.99994"
       r="65" />
    <radialGradient
       xlink:href="#linearGradient33835"
       id="radialGradient4275"
       gradientUnits="userSpaceOnUse"
       gradientTransform="matrix(1.0901605,0,0,1.0901605,1.3122771,-15.21907)"
       cx="234.99998"
       cy="194.99994"
       fx="234.99998"
       fy="194.99994"
       r="65" />
    <radialGradient
       xlink:href="#linearGradient33835"
       id="radialGradient4278"
       gradientUnits="userSpaceOnUse"
       gradientTransform="matrix(0.62641412,0,0,-0.62641412,144.58609,354.59617)"
       cx="234.99998"
       cy="194.99994"
       fx="234.99998"
       fy="194.99994"
       r="65" />
    <radialGradient
       xlink:href="#linearGradient33835"
       id="radialGradient4281"
       gradientUnits="userSpaceOnUse"
       gradientTransform="matrix(0.6816948,0,0,-0.6816948,131.59538,365.3757)"
       cx="234.99998"
       cy="194.99994"
       fx="234.99998"
       fy="194.99994"
       r="65" />
    <radialGradient
       xlink:href="#linearGradient43475"
       id="radialGradient4283"
       gradientUnits="userSpaceOnUse"
       gradientTransform="matrix(-0.43829024,0.75914099,-0.75914099,-0.43829024,290.83876,2.0707587)"
       spreadMethod="pad"
       cx="210"
       cy="-50"
       fx="210"
       fy="-50"
       r="10" />
    <radialGradient
       xlink:href="#linearGradient43475"
       id="radialGradient4285"
       gradientUnits="userSpaceOnUse"
       gradientTransform="matrix(1.6373293,-0.94531247,-0.94531247,-1.6373293,-289.3932,-583.95016)"
       cx="0.81794727"
       cy="-501.47858"
       fx="0.81794727"
       fy="-501.47858"
       r="2.5" />
    <radialGradient
       xlink:href="#linearGradient43475"
       id="radialGradient4288"
       gradientUnits="userSpaceOnUse"
       gradientTransform="matrix(0.95937264,-0.55389403,-0.55389403,-0.95937264,-28.651808,-225.34799)"
       cx="0.81794727"
       cy="-501.47858"
       fx="0.81794727"
       fy="-501.47858"
       r="2.5" />
    <radialGradient
       xlink:href="#linearGradient43475"
       id="radialGradient4291"
       gradientUnits="userSpaceOnUse"
       gradientTransform="matrix(0.16616821,0.28781179,0.28781179,-0.16616821,230.05668,184.28105)"
       spreadMethod="pad"
       cx="210"
       cy="-50"
       fx="210"
       fy="-50"
       r="10" />
    <radialGradient
       xlink:href="#linearGradient43475"
       id="radialGradient4294"
       gradientUnits="userSpaceOnUse"
       gradientTransform="matrix(0.28359374,-0.49119878,0.49119878,0.28359374,187.32361,244.60572)"
       cx="210"
       cy="-50"
       fx="210"
       fy="-50"
       r="10" />
    <radialGradient
       xlink:href="#linearGradient43475"
       id="radialGradient4296"
       gradientUnits="userSpaceOnUse"
       gradientTransform="matrix(0,-0.99999999,0.99980485,0,7.5419223,419.45593)"
       cx="289.09375"
       cy="215.50014"
       fx="289.09375"
       fy="215.50014"
       r="4.3467994" />
    <radialGradient
       xlink:href="#linearGradient43475"
       id="radialGradient4299"
       gradientUnits="userSpaceOnUse"
       gradientTransform="matrix(0,-0.58593749,0.58582315,0,145.33362,362.58527)"
       cx="289.09375"
       cy="215.50014"
       fx="289.09375"
       fy="215.50014"
       r="4.3467994" />
    <radialGradient
       xlink:href="#linearGradient43475"
       id="radialGradient4302"
       gradientUnits="userSpaceOnUse"
       gradientTransform="matrix(0.16616821,-0.28781179,0.28781179,0.16616821,250.67445,260.13397)"
       cx="210"
       cy="-50"
       fx="210"
       fy="-50"
       r="10" />
    <radialGradient
       xlink:href="#linearGradient43475"
       id="radialGradient4305"
       gradientUnits="userSpaceOnUse"
       gradientTransform="matrix(0.28359374,-0.49119878,0.49119878,0.28359374,292.10486,278.85572)"
       cx="210"
       cy="-50"
       fx="210"
       fy="-50"
       r="10" />
    <radialGradient
       xlink:href="#linearGradient43475"
       id="radialGradient4307"
       gradientUnits="userSpaceOnUse"
       gradientTransform="matrix(1.6373293,0.94531247,-0.94531247,1.6373293,-149.42501,977.95592)"
       cx="3.6491058"
       cy="-498.72348"
       fx="3.6491058"
       fy="-498.72348"
       r="2.5" />
    <radialGradient
       xlink:href="#linearGradient43475"
       id="radialGradient4310"
       gradientUnits="userSpaceOnUse"
       gradientTransform="matrix(0.95937264,0.55389403,-0.55389403,0.95937264,53.360803,689.83136)"
       cx="3.6491058"
       cy="-498.72348"
       fx="3.6491058"
       fy="-498.72348"
       r="2.5" />
    <radialGradient
       xlink:href="#linearGradient43475"
       id="radialGradient4313"
       gradientUnits="userSpaceOnUse"
       gradientTransform="matrix(0.16616821,-0.28781179,0.28781179,0.16616821,312.06971,280.20233)"
       cx="210"
       cy="-50"
       fx="210"
       fy="-50"
       r="10" />
    <radialGradient
       xlink:href="#linearGradient43475"
       id="radialGradient4316"
       gradientUnits="userSpaceOnUse"
       gradientTransform="matrix(0.49119878,0.28359374,-0.28359374,0.49119878,174.85021,232.18579)"
       cx="210"
       cy="-50"
       fx="210"
       fy="-50"
       r="10" />
    <radialGradient
       xlink:href="#linearGradient43475"
       id="radialGradient4318"
       gradientUnits="userSpaceOnUse"
       gradientTransform="matrix(-0.94531248,1.6373293,-1.6373293,-0.94531248,-524.25,-209.34338)"
       cx="3.338691"
       cy="-501.67435"
       fx="3.338691"
       fy="-501.67435"
       r="2.5" />
    <radialGradient
       xlink:href="#linearGradient43475"
       id="radialGradient4321"
       gradientUnits="userSpaceOnUse"
       gradientTransform="matrix(-0.55389403,0.95937264,-0.95937264,-0.55389403,-166.26321,-5.8518267)"
       cx="3.338691"
       cy="-501.67435"
       fx="3.338691"
       fy="-501.67435"
       r="2.5" />
    <radialGradient
       xlink:href="#linearGradient43475"
       id="radialGradient4324"
       gradientUnits="userSpaceOnUse"
       gradientTransform="matrix(0.28781179,0.16616821,-0.16616821,0.28781179,243.36581,252.85667)"
       cx="210"
       cy="-50"
       fx="210"
       fy="-50"
       r="10" />
    <radialGradient
       xlink:href="#linearGradient14798"
       id="radialGradient4327"
       gradientUnits="userSpaceOnUse"
       gradientTransform="matrix(0,1.0690801,-1.0299766,0,458.34547,-57.950349)"
       cx="233.06587"
       cy="197.36218"
       fx="233.06587"
       fy="197.36218"
       r="73.342575" />
    <radialGradient
       xlink:href="#linearGradient14798"
       id="radialGradient4329"
       gradientUnits="userSpaceOnUse"
       gradientTransform="matrix(0,-1.0690801,-1.0299766,0,458.34547,449.36142)"
       cx="233.68759"
       cy="197.36218"
       fx="233.68759"
       fy="197.36218"
       r="73.342575" />
    <radialGradient
       xlink:href="#linearGradient14798"
       id="radialGradient4332"
       gradientUnits="userSpaceOnUse"
       gradientTransform="matrix(0,-0.62641412,-0.59100434,0,407.03929,380.10802)"
       cx="233.68759"
       cy="197.36218"
       fx="233.68759"
       fy="197.36218"
       r="73.342575" />
    <radialGradient
       xlink:href="#linearGradient14798"
       id="radialGradient4335"
       gradientUnits="userSpaceOnUse"
       gradientTransform="matrix(0,0.62641412,-0.59100434,0,407.03929,82.855027)"
       cx="233.06587"
       cy="197.36218"
       fx="233.06587"
       fy="197.36218"
       r="73.342575" />
    <clipPath
       clipPathUnits="userSpaceOnUse"
       id="clipPath48">
      <path
         d="m 6587.74,5834.83 c -27.62,0 -50.52,21.58 -52.12,49.23 l -58.47,1031.15 -28.6,-656.48 c -1.23,-27.42 -23.45,-49.23 -50.9,-49.91 -27.75,0.31 -50.72,20.11 -53.23,47.43 l -57.45,627.81 -34.18,-509.14 c -1.8,-26.8 -23.68,-47.87 -50.52,-48.65 -26.57,-0.88 -49.91,18.89 -53.34,45.53 l -52.05,407.55 -48.96,-330.3 c -3.67,-24.93 -24.66,-43.65 -49.87,-44.5 -23.72,-1.57 -47.36,16.41 -52.73,41.07 l -57.04,262.32 -45.29,-214.21 c -5.27,-24.8 -27.42,-43.08 -52.86,-41.35 -25.32,0.89 -46.35,19.81 -49.88,44.92 l -54.29,386.83 -46.82,-313.38 c -3.46,-23.27 -22.08,-41.35 -45.45,-44.1 -23.48,-3.23 -45.7,10.43 -54.53,32.24 l -42.44,104.95 -63.97,-111.37 c -9.85,-17.16 -28.61,-27.59 -48.35,-26.09 -19.77,1.15 -37.16,13.42 -44.91,31.66 l -38.97,91.53 -38.97,-91.53 c -11.24,-26.53 -41.78,-39 -68.42,-27.58 -26.53,11.28 -38.9,41.92 -27.59,68.42 l 86.98,204.39 c 8.18,19.26 27.07,31.77 48,31.77 20.93,0 39.82,-12.51 48.01,-31.77 l 45.93,-107.9 65.2,113.47 c 9.95,17.33 29.15,27.69 48.82,26.06 19.94,-1.36 37.34,-13.96 44.81,-32.48 l 10.91,-26.98 71.75,480.44 c 3.81,25.54 25.79,44.47 51.61,44.47 h 0.23 c 25.93,-0.1 47.84,-19.27 51.44,-44.95 l 63.09,-449.55 34.21,161.75 c 5.1,24.06 26.33,41.32 50.93,41.38 h 0.14 c 24.53,0 45.76,-17.09 50.99,-41.11 l 48.01,-220.76 62.48,421.72 c 3.8,25.79 25.85,45.6 52.11,44.54 26.1,-0.27 47.94,-19.7 51.27,-45.56 l 32.07,-251.24 42.37,630.8 c 1.83,27.15 24.22,48.35 51.44,48.69 h 0.64 c 26.94,0 49.5,-20.52 51.98,-47.43 l 46.96,-513.21 40.25,923.86 c 1.23,27.79 24.02,49.74 51.82,49.91 h 0.33 c 27.66,0 50.52,-21.58 52.12,-49.23 l 47.43,-836.58 30.95,1113.4 c 0.75,27.79 23.2,50.08 51,50.72 h 1.18 c 27.29,0 50.05,-21.06 52.02,-48.41 l 76.61,-1058.88 32.28,800.64 c 1.12,27.52 23.41,49.44 50.96,50.08 27.72,-0.98 50.79,-20.28 53.17,-47.66 l 85.89,-990.15 18.85,228.88 c 2.14,26.06 23.24,46.48 49.33,47.84 24.6,0.78 49.16,-16.78 53.99,-42.47 l 79.02,-420.64 23.61,89.46 c 6.15,23.41 26.33,40.36 51.85,38.83 24.22,-0.64 44.78,-17.87 49.7,-41.55 l 47.36,-228.58 45.15,717.03 c 1.7,27.11 23.96,48.38 51.1,48.89 h 0.99 c 26.77,0 49.23,-20.25 51.91,-46.99 l 53.17,-529.11 34.45,282.36 c 3.12,25.55 24.39,44.98 50.11,45.83 25.28,0.88 48.21,-17.16 52.97,-42.47 l 44.37,-234.66 52.69,392.81 c 3.47,25.96 25.62,45.25 51.71,45.25 h 0.71 c 26.44,-0.37 48.42,-20.41 51.17,-46.68 l 41.07,-388.19 55.14,578.99 c 2.55,26.78 25.04,47.23 51.92,47.23 h 0.03 c 26.88,0 49.37,-20.42 51.95,-47.19 l 38.08,-395.16 44.82,1491.95 c 0.81,28.03 23.64,50.35 51.67,50.62 h 0.48 c 27.82,0 50.79,-21.84 52.11,-49.67 l 76.92,-1589.25 28,206.5 c 3.46,25.55 25.03,44.74 50.79,45.18 24.66,-0.44 47.97,-17.97 52.35,-43.38 l 66.29,-387.11 35.97,147.18 c 5.71,23.38 26.67,39.79 50.69,39.79 h 0.89 c 24.39,-0.45 45.22,-17.67 50.21,-41.56 l 51,-244.88 49.29,127.03 c 8.29,21.33 29.39,35.3 52.29,33.16 22.8,-1.57 41.92,-17.84 47.16,-40.09 l 69.57,-295.71 c 6.6,-28.07 -10.76,-56.16 -38.83,-62.76 -28.09,-6.72 -56.16,10.84 -62.75,38.84 l -31.02,131.85 -52.18,-134.43 c -8.36,-21.55 -30.14,-34.69 -52.93,-33.13 -23.04,1.9 -42.1,18.75 -46.82,41.38 l -39.92,191.72 -40.94,-167.39 c -5.88,-24.02 -29.15,-40.5 -52.52,-39.75 -24.7,0.85 -45.43,18.95 -49.61,43.35 l -51.3,299.51 -58.64,-432.52 c -3.63,-26.74 -27.58,-45.87 -53.95,-45.15 -26.97,1.19 -48.58,22.69 -49.87,49.63 l -40.02,827.28 -29.66,-987.23 c -0.82,-27.52 -22.9,-49.67 -50.42,-50.59 -27.55,-0.98 -51.06,19.74 -53.68,47.16 l -65.13,675.61 -52.76,-553.81 c -2.55,-26.67 -24.87,-47.09 -51.68,-47.23 h -0.27 c -26.67,0 -49.09,20.15 -51.88,46.68 l -49.9,471.84 -37.85,-281.92 c -3.4,-25.38 -24.7,-44.54 -50.32,-45.22 l -1.42,-0.03 c -25.01,0 -46.58,17.8 -51.24,42.5 l -41.99,222.22 -50.62,-414.55 c -3.23,-26.36 -25.45,-45.39 -52.36,-45.87 -26.6,0.28 -48.72,20.53 -51.37,46.99 l -36.18,360.2 -29.42,-467.01 c -1.63,-26.06 -22.32,-46.92 -48.41,-48.76 -25.86,-1.69 -49.5,15.9 -54.77,41.45 l -81.13,391.69 -26.06,-98.69 c -6.22,-23.58 -29.42,-39.82 -52.32,-38.84 -24.39,0.89 -44.91,18.55 -49.43,42.51 l -50.28,267.58 -37.75,-457.91 c -2.24,-27.04 -24.8,-47.83 -51.91,-47.9 h -0.1 c -27.08,0 -49.64,20.69 -51.98,47.66 l -68.16,785.66 -36.45,-905.01 c -1.12,-27.65 -23.65,-49.63 -51.3,-50.08 h -0.85 c -27.32,0 -50.08,21.1 -52.05,48.42 l -68.26,943.06 -36.28,-1306.04 c -0.75,-27.93 -23.44,-50.32 -51.4,-50.73 z"
         id="path46" />
    </clipPath>
    <linearGradient
       x1="0"
       y1="0"
       x2="1"
       y2="0"
       gradientUnits="userSpaceOnUse"
       gradientTransform="matrix(1e-7,-3069.24,-3069.24,-1e-7,7074.79,8590.05)"
       spreadMethod="pad"
       id="linearGradient54">
      <stop
         style="stop-opacity:1;stop-color:#00adef"
         offset="0"
         id="stop50" />
      <stop
         style="stop-opacity:1;stop-color:#2e3192"
         offset="1"
         id="stop52" />
    </linearGradient>
  </defs>
  <g
     id="layer1"
     transform="translate(-300.92971,-446.33736)">
    <g
       id="g8821"
       transform="matrix(-1.5454863,0,0,1.5454863,831.8925,166.54526)">
      <g
         id="g14710">
        <g
           id="g4240">
          <g
             id="g1220">
            <path
               style="color:#000000;display:inline;overflow:visible;visibility:visible;fill:url(#linearGradient4233);fill-opacity:1;fill-rule:nonzero;stroke:none;stroke-width:0.5859375;marker:none;enable-background:accumulate"
               d="m 280.7522,185.03827 c -0.64151,-0.004 -1.26644,0.007 -1.88599,0.0183 -4.5058,0.0803 -8.35506,0.57036 -10.51025,1.64795 -6.89662,3.44832 -19.36954,24.47214 -21.80787,31.78711 -2.43832,7.31498 -5.07795,31.62877 -1.62963,38.52539 3.44831,6.89662 24.47213,19.36954 31.7871,21.80786 7.31498,2.43833 31.62878,5.07796 38.5254,1.62964 6.89661,-3.44831 19.36953,-24.47213 21.80786,-31.78711 2.43832,-7.31497 5.07795,-31.62877 1.62964,-38.52539 -3.44832,-6.89662 -24.47214,-19.36953 -31.78711,-21.80786 -4.71473,-1.57158 -16.50659,-3.23995 -26.12915,-3.2959 z m -9.46656,4.59595 c 1.61802,0 2.92969,1.31167 2.92969,2.92969 0,1.61802 -1.31167,2.92969 -2.92969,2.92969 -1.61802,0 -2.92968,-1.31167 -2.92968,-2.92969 0,-1.61802 1.31166,-2.92969 2.92968,-2.92969 z m 61.52344,20.50781 c 1.61802,0 2.92969,1.31167 2.92969,2.92969 0,1.61802 -1.31167,2.92969 -2.92969,2.92969 -1.61802,0 -2.92969,-1.31167 -2.92969,-2.92969 0,-1.61802 1.31167,-2.92969 2.92969,-2.92969 z m -82.03125,41.01563 c 1.61802,0 2.92969,1.31167 2.92969,2.92969 0,1.61801 -1.31167,2.92968 -2.92969,2.92968 -1.61802,0 -2.92969,-1.31167 -2.92969,-2.92968 0,-1.61802 1.31167,-2.92969 2.92969,-2.92969 z m 61.52344,20.50781 c 1.61802,0 2.92969,1.31167 2.92969,2.92969 0,1.61802 -1.31167,2.92969 -2.92969,2.92969 -1.61802,0 -2.92969,-1.31167 -2.92969,-2.92969 0,-1.61802 1.31167,-2.92969 2.92969,-2.92969 z"
               id="path34018" />
            <path
               style="color:#000000;display:inline;overflow:visible;visibility:visible;fill:#ffffff;fill-opacity:1;fill-rule:nonzero;stroke:none;stroke-width:0.5859375;marker:none;enable-background:accumulate"
               d="m 280.7522,183.49664 c -0.64151,-0.004 -1.26644,0.007 -1.88599,0.0183 -4.5058,0.0803 -8.35506,0.57035 -10.51025,1.64795 -6.89662,3.44831 -19.36954,24.47213 -21.80787,31.78711 -2.43832,7.31497 -5.07795,31.62877 -1.62963,38.52539 3.44831,6.89662 24.47213,19.36953 31.7871,21.80786 7.31498,2.43832 31.62878,5.07795 38.5254,1.62964 6.89661,-3.44832 19.36953,-24.47214 21.80786,-31.78711 2.43832,-7.31498 5.07795,-31.62877 1.62964,-38.52539 -3.44832,-6.89662 -24.47214,-19.36954 -31.78711,-21.80786 -4.71473,-1.57158 -16.50659,-3.23995 -26.12915,-3.2959 z m -9.46656,4.59594 c 1.61802,0 2.92969,1.31167 2.92969,2.92969 0,1.61802 -1.31167,2.92969 -2.92969,2.92969 -1.61802,0 -2.92968,-1.31167 -2.92968,-2.92969 0,-1.61802 1.31166,-2.92969 2.92968,-2.92969 z m 61.52344,20.50782 c 1.61802,0 2.92969,1.31166 2.92969,2.92968 0,1.61802 -1.31167,2.92969 -2.92969,2.92969 -1.61802,0 -2.92969,-1.31167 -2.92969,-2.92969 0,-1.61802 1.31167,-2.92968 2.92969,-2.92968 z m -82.03125,41.01562 c 1.61802,0 2.92969,1.31167 2.92969,2.92969 0,1.61802 -1.31167,2.92969 -2.92969,2.92969 -1.61802,0 -2.92969,-1.31167 -2.92969,-2.92969 0,-1.61802 1.31167,-2.92969 2.92969,-2.92969 z m 61.52344,20.50781 c 1.61802,0 2.92969,1.31167 2.92969,2.92969 0,1.61802 -1.31167,2.92969 -2.92969,2.92969 -1.61802,0 -2.92969,-1.31167 -2.92969,-2.92969 0,-1.61802 1.31167,-2.92969 2.92969,-2.92969 z"
               id="path8817" />
            <path
               id="path33884"
               d="m 280.7522,183.91095 c -0.64151,-0.004 -1.26644,0.007 -1.88599,0.0183 -4.5058,0.0803 -8.35506,0.57036 -10.51025,1.64795 -6.89662,3.44832 -19.36954,24.47214 -21.80787,31.78711 -2.43832,7.31498 -5.07795,31.62877 -1.62963,38.52539 3.44831,6.89662 24.47213,19.36954 31.7871,21.80786 7.31498,2.43833 31.62878,5.07796 38.5254,1.62964 6.89661,-3.44831 19.36953,-24.47213 21.80786,-31.78711 2.43832,-7.31497 5.07795,-31.62877 1.62964,-38.52539 -3.44832,-6.89662 -24.47214,-19.36953 -31.78711,-21.80786 -4.71473,-1.57158 -16.50659,-3.23995 -26.12915,-3.2959 z m -9.46656,4.59595 c 1.61802,0 2.92969,1.31167 2.92969,2.92969 0,1.61802 -1.31167,2.92968 -2.92969,2.92968 -1.61802,0 -2.92968,-1.31166 -2.92968,-2.92968 0,-1.61802 1.31166,-2.92969 2.92968,-2.92969 z m 61.52344,20.50781 c 1.61802,0 2.92969,1.31167 2.92969,2.92969 0,1.61802 -1.31167,2.92969 -2.92969,2.92969 -1.61802,0 -2.92969,-1.31167 -2.92969,-2.92969 0,-1.61802 1.31167,-2.92969 2.92969,-2.92969 z m -82.03125,41.01563 c 1.61802,0 2.92969,1.31167 2.92969,2.92968 0,1.61802 -1.31167,2.92969 -2.92969,2.92969 -1.61802,0 -2.92969,-1.31167 -2.92969,-2.92969 0,-1.61801 1.31167,-2.92968 2.92969,-2.92968 z m 61.52344,20.50781 c 1.61802,0 2.92969,1.31167 2.92969,2.92969 0,1.61802 -1.31167,2.92968 -2.92969,2.92968 -1.61802,0 -2.92969,-1.31166 -2.92969,-2.92968 0,-1.61802 1.31167,-2.92969 2.92969,-2.92969 z"
               style="color:#000000;display:inline;overflow:visible;visibility:visible;fill:url(#radialGradient4229);fill-opacity:1;fill-rule:nonzero;stroke:none;stroke-width:0.5859375;marker:none;enable-background:accumulate" />
            <path
               id="path14528"
               d="m 333.93663,232.44544 c 0,-23.27513 -18.86801,-42.14317 -42.14316,-42.14317 -23.27513,0 -42.14319,18.86804 -42.14319,42.14317 0,23.27516 18.86806,42.14316 42.14319,42.14316 23.27515,0 42.14316,-18.868 42.14316,-42.14316 z"
               style="color:#000000;display:inline;overflow:visible;visibility:visible;fill:url(#radialGradient4281);fill-opacity:1;fill-rule:nonzero;stroke:none;stroke-width:0.5859375;marker:none;enable-background:accumulate" />
            <path
               style="color:#000000;display:inline;overflow:visible;visibility:visible;fill:url(#radialGradient4278);fill-opacity:1;fill-rule:nonzero;stroke:none;stroke-width:0.5859375;marker:none;enable-background:accumulate"
               d="m 332.51036,232.44544 c 0,-22.48733 -18.22958,-40.71692 -40.71691,-40.71692 -22.48733,0 -40.71692,18.22959 -40.71692,40.71692 0,22.48734 18.22959,40.71692 40.71692,40.71692 22.48733,0 40.71691,-18.22958 40.71691,-40.71692 z"
               id="path33886" />
            <path
               style="color:#000000;display:inline;overflow:visible;visibility:visible;fill:url(#radialGradient4220);fill-opacity:1;fill-rule:nonzero;stroke:none;stroke-width:0.5859375;marker:none;enable-background:accumulate"
               d="m 325.77783,232.44544 c 0,18.76909 -15.21528,33.98437 -33.98437,33.98437 -18.7691,0 -33.98438,-15.21528 -33.98438,-33.98437 0,-18.76909 15.21528,-33.98438 33.98438,-33.98438 18.76909,0 33.98437,15.21529 33.98437,33.98438 z"
               id="path33888" />
            <g
               style="fill:#b0c4de"
               transform="matrix(-0.01665429,0,0,-0.01665429,409.78081,352.75395)"
               clip-path="url(#clipPath48)"
               id="g44">
              <path
                 id="path56"
                 style="fill:#b0c4de;fill-opacity:1;fill-rule:nonzero;stroke:none"
                 d="m 6587.74,5834.83 c -27.62,0 -50.52,21.58 -52.12,49.23 l -58.47,1031.15 -28.6,-656.48 c -1.23,-27.42 -23.45,-49.23 -50.9,-49.91 -27.75,0.31 -50.72,20.11 -53.23,47.43 l -57.45,627.81 -34.18,-509.14 c -1.8,-26.8 -23.68,-47.87 -50.52,-48.65 -26.57,-0.88 -49.91,18.89 -53.34,45.53 l -52.05,407.55 -48.96,-330.3 c -3.67,-24.93 -24.66,-43.65 -49.87,-44.5 -23.72,-1.57 -47.36,16.41 -52.73,41.07 l -57.04,262.32 -45.29,-214.21 c -5.27,-24.8 -27.42,-43.08 -52.86,-41.35 -25.32,0.89 -46.35,19.81 -49.88,44.92 l -54.29,386.83 -46.82,-313.38 c -3.46,-23.27 -22.08,-41.35 -45.45,-44.1 -23.48,-3.23 -45.7,10.43 -54.53,32.24 l -42.44,104.95 -63.97,-111.37 c -9.85,-17.16 -28.61,-27.59 -48.35,-26.09 -19.77,1.15 -37.16,13.42 -44.91,31.66 l -38.97,91.53 -38.97,-91.53 c -11.24,-26.53 -41.78,-39 -68.42,-27.58 -26.53,11.28 -38.9,41.92 -27.59,68.42 l 86.98,204.39 c 8.18,19.26 27.07,31.77 48,31.77 20.93,0 39.82,-12.51 48.01,-31.77 l 45.93,-107.9 65.2,113.47 c 9.95,17.33 29.15,27.69 48.82,26.06 19.94,-1.36 37.34,-13.96 44.81,-32.48 l 10.91,-26.98 71.75,480.44 c 3.81,25.54 25.79,44.47 51.61,44.47 h 0.23 c 25.93,-0.1 47.84,-19.27 51.44,-44.95 l 63.09,-449.55 34.21,161.75 c 5.1,24.06 26.33,41.32 50.93,41.38 h 0.14 c 24.53,0 45.76,-17.09 50.99,-41.11 l 48.01,-220.76 62.48,421.72 c 3.8,25.79 25.85,45.6 52.11,44.54 26.1,-0.27 47.94,-19.7 51.27,-45.56 l 32.07,-251.24 42.37,630.8 c 1.83,27.15 24.22,48.35 51.44,48.69 h 0.64 c 26.94,0 49.5,-20.52 51.98,-47.43 l 46.96,-513.21 40.25,923.86 c 1.23,27.79 24.02,49.74 51.82,49.91 h 0.33 c 27.66,0 50.52,-21.58 52.12,-49.23 l 47.43,-836.58 30.95,1113.4 c 0.75,27.79 23.2,50.08 51,50.72 h 1.18 c 27.29,0 50.05,-21.06 52.02,-48.41 l 76.61,-1058.88 32.28,800.64 c 1.12,27.52 23.41,49.44 50.96,50.08 27.72,-0.98 50.79,-20.28 53.17,-47.66 l 85.89,-990.15 18.85,228.88 c 2.14,26.06 23.24,46.48 49.33,47.84 24.6,0.78 49.16,-16.78 53.99,-42.47 l 79.02,-420.64 23.61,89.46 c 6.15,23.41 26.33,40.36 51.85,38.83 24.22,-0.64 44.78,-17.87 49.7,-41.55 l 47.36,-228.58 45.15,717.03 c 1.7,27.11 23.96,48.38 51.1,48.89 h 0.99 c 26.77,0 49.23,-20.25 51.91,-46.99 l 53.17,-529.11 34.45,282.36 c 3.12,25.55 24.39,44.98 50.11,45.83 25.28,0.88 48.21,-17.16 52.97,-42.47 l 44.37,-234.66 52.69,392.81 c 3.47,25.96 25.62,45.25 51.71,45.25 h 0.71 c 26.44,-0.37 48.42,-20.41 51.17,-46.68 l 41.07,-388.19 55.14,578.99 c 2.55,26.78 25.04,47.23 51.92,47.23 h 0.03 c 26.88,0 49.37,-20.42 51.95,-47.19 l 38.08,-395.16 44.82,1491.95 c 0.81,28.03 23.64,50.35 51.67,50.62 h 0.48 c 27.82,0 50.79,-21.84 52.11,-49.67 l 76.92,-1589.25 28,206.5 c 3.46,25.55 25.03,44.74 50.79,45.18 24.66,-0.44 47.97,-17.97 52.35,-43.38 l 66.29,-387.11 35.97,147.18 c 5.71,23.38 26.67,39.79 50.69,39.79 h 0.89 c 24.39,-0.45 45.22,-17.67 50.21,-41.56 l 51,-244.88 49.29,127.03 c 8.29,21.33 29.39,35.3 52.29,33.16 22.8,-1.57 41.92,-17.84 47.16,-40.09 l 69.57,-295.71 c 6.6,-28.07 -10.76,-56.16 -38.83,-62.76 -28.09,-6.72 -56.16,10.84 -62.75,38.84 l -31.02,131.85 -52.18,-134.43 c -8.36,-21.55 -30.14,-34.69 -52.93,-33.13 -23.04,1.9 -42.1,18.75 -46.82,41.38 l -39.92,191.72 -40.94,-167.39 c -5.88,-24.02 -29.15,-40.5 -52.52,-39.75 -24.7,0.85 -45.43,18.95 -49.61,43.35 l -51.3,299.51 -58.64,-432.52 c -3.63,-26.74 -27.58,-45.87 -53.95,-45.15 -26.97,1.19 -48.58,22.69 -49.87,49.63 l -40.02,827.28 -29.66,-987.23 c -0.82,-27.52 -22.9,-49.67 -50.42,-50.59 -27.55,-0.98 -51.06,19.74 -53.68,47.16 l -65.13,675.61 -52.76,-553.81 c -2.55,-26.67 -24.87,-47.09 -51.68,-47.23 h -0.27 c -26.67,0 -49.09,20.15 -51.88,46.68 l -49.9,471.84 -37.85,-281.92 c -3.4,-25.38 -24.7,-44.54 -50.32,-45.22 l -1.42,-0.03 c -25.01,0 -46.58,17.8 -51.24,42.5 l -41.99,222.22 -50.62,-414.55 c -3.23,-26.36 -25.45,-45.39 -52.36,-45.87 -26.6,0.28 -48.72,20.53 -51.37,46.99 l -36.18,360.2 -29.42,-467.01 c -1.63,-26.06 -22.32,-46.92 -48.41,-48.76 -25.86,-1.69 -49.5,15.9 -54.77,41.45 l -81.13,391.69 -26.06,-98.69 c -6.22,-23.58 -29.42,-39.82 -52.32,-38.84 -24.39,0.89 -44.91,18.55 -49.43,42.51 l -50.28,267.58 -37.75,-457.91 c -2.24,-27.04 -24.8,-47.83 -51.91,-47.9 h -0.1 c -27.08,0 -49.64,20.69 -51.98,47.66 l -68.16,785.66 -36.45,-905.01 c -1.12,-27.65 -23.65,-49.63 -51.3,-50.08 h -0.85 c -27.32,0 -50.08,21.1 -52.05,48.42 l -68.26,943.06 -36.28,-1306.04 c -0.75,-27.93 -23.44,-50.32 -51.4,-50.73 h -0.75" />
            </g>
            <path
               style="color:#000000;display:inline;overflow:visible;visibility:visible;fill:url(#radialGradient4217);fill-opacity:1;fill-rule:nonzero;stroke:none;stroke-width:0.5859375;marker:none;enable-background:accumulate"
               d="m 291.79343,198.46784 c -14.54627,0 -26.95678,9.12323 -31.80542,21.97265 4.84436,12.85786 17.2531,22.00928 31.80542,22.00928 14.5523,0 26.96105,-9.15142 31.80542,-22.00928 -4.84865,-12.84942 -17.25916,-21.97265 -31.80542,-21.97265 z"
               id="path14739" />
            <path
               id="path14794"
               d="m 291.79346,266.42981 c -14.54627,0 -26.95678,-9.12322 -31.80542,-21.97265 4.84436,-12.85786 17.2531,-22.00928 31.80542,-22.00928 14.5523,0 26.96105,9.15142 31.80542,22.00928 -4.84865,12.84943 -17.25916,21.97265 -31.80542,21.97265 z"
               style="color:#000000;display:inline;overflow:visible;visibility:visible;opacity:0.5;fill:url(#radialGradient4214);fill-opacity:1;fill-rule:nonzero;stroke:none;stroke-width:0.5859375;marker:none;enable-background:accumulate" />
            <path
               style="color:#000000;display:inline;overflow:visible;visibility:visible;fill:#000000;fill-opacity:1;fill-rule:nonzero;stroke:none;stroke-width:0.5859375;marker:none;enable-background:accumulate"
               d="m 247.22556,253.87555 c 0.0752,1.06421 0.65448,2.06315 1.64794,2.63672 1.58955,0.91772 3.6233,0.38105 4.54102,-1.2085 0.91772,-1.58954 0.38105,-3.62329 -1.2085,-4.54101 -1.58954,-0.91772 -3.62329,-0.38105 -4.54101,1.2085 -0.34415,0.59608 -0.48458,1.26577 -0.43945,1.90429 z"
               id="path6824" />
            <path
               style="color:#000000;display:inline;overflow:visible;visibility:visible;fill:url(#radialGradient4291);fill-opacity:1;fill-rule:nonzero;stroke:none;stroke-width:0.5859375;marker:none;enable-background:accumulate"
               d="m 250.78837,249.71308 c 1.06456,0.0729 2.06847,0.66522 2.64205,1.65869 0.91772,1.58954 0.38107,3.61997 -1.20848,4.53769 -1.58954,0.91771 -3.61996,0.38107 -4.53768,-1.20847 -0.34415,-0.59608 -0.4835,-1.26897 -0.43837,-1.90749 0.0752,-1.06421 0.65337,-2.05663 1.64684,-2.63021 0.59607,-0.34414 1.25691,-0.49394 1.89564,-0.45021 z"
               id="path43572" />
            <path
               style="color:#000000;display:inline;overflow:visible;visibility:visible;fill:url(#radialGradient4288);fill-opacity:1;fill-rule:nonzero;stroke:none;stroke-width:0.5859375;marker:none;enable-background:accumulate"
               d="m 248.03113,253.87565 c 0.0366,-0.13677 0.12348,-0.25288 0.25635,-0.32959 l 1.33667,-0.76905 -0.76904,-1.31836 c -0.15343,-0.26574 -0.0643,-0.5973 0.20141,-0.75073 l 0.23804,-0.14648 c 0.26575,-0.15343 0.5973,-0.0643 0.75073,0.20141 l 0.76904,1.31836 1.31836,-0.75073 c 0.26575,-0.15343 0.59731,-0.0643 0.75074,0.20142 l 0.14648,0.23803 c 0.15343,0.26575 0.0643,0.59731 -0.20142,0.75074 l -1.31835,0.76904 0.75073,1.31836 c 0.15343,0.26574 0.0643,0.5973 -0.20142,0.75073 l -0.23804,0.14648 c -0.26574,0.15343 -0.5973,0.0643 -0.75073,-0.20141 l -0.76904,-1.33667 -1.31836,0.76904 c -0.26575,0.15343 -0.5973,0.0643 -0.75073,-0.20141 l -0.14649,-0.23804 c -0.0767,-0.13287 -0.0916,-0.28438 -0.0549,-0.42114 z"
               id="path43574" />
            <path
               id="path6826"
               d="m 267.76999,192.20563 c 0.0752,1.0642 0.65449,2.06314 1.64795,2.63672 1.58954,0.91772 3.62329,0.38105 4.54101,-1.2085 0.91772,-1.58954 0.38105,-3.62329 -1.20849,-4.54101 -1.58955,-0.91772 -3.6233,-0.38105 -4.54102,1.20849 -0.34414,0.59609 -0.48457,1.26578 -0.43945,1.9043 z"
               style="color:#000000;display:inline;overflow:visible;visibility:visible;fill:#000000;fill-opacity:1;fill-rule:nonzero;stroke:none;stroke-width:0.5859375;marker:none;enable-background:accumulate" />
            <path
               id="path43592"
               d="m 267.86154,191.61969 c 0.0752,1.06421 0.65449,2.06315 1.64795,2.63672 1.58954,0.91772 3.6233,0.38105 4.54102,-1.20849 0.91772,-1.58955 0.38104,-3.6233 -1.2085,-4.54102 -1.58954,-0.91772 -3.6233,-0.38105 -4.54102,1.2085 -0.34414,0.59608 -0.48457,1.26577 -0.43945,1.90429 z"
               style="color:#000000;display:inline;overflow:visible;visibility:visible;fill:url(#radialGradient4302);fill-opacity:1;fill-rule:nonzero;stroke:none;stroke-width:0.5859375;marker:none;enable-background:accumulate" />
            <path
               id="path43594"
               d="m 268.6489,190.53937 c 0.0366,0.13676 0.12347,0.25287 0.25634,0.32959 l 1.33667,0.76904 -0.76904,1.31836 c -0.15343,0.26575 -0.0643,0.59731 0.20142,0.75074 l 0.23803,0.14648 c 0.26575,0.15343 0.59731,0.0643 0.75074,-0.20142 l 0.76904,-1.31836 1.31836,0.75074 c 0.26574,0.15342 0.5973,0.0643 0.75073,-0.20142 l 0.14648,-0.23804 c 0.15343,-0.26574 0.0643,-0.5973 -0.20141,-0.75073 l -1.31836,-0.76904 0.75073,-1.31836 c 0.15343,-0.26575 0.0643,-0.59731 -0.20141,-0.75073 l -0.23804,-0.14649 c -0.26575,-0.15343 -0.59731,-0.0643 -0.75073,0.20142 l -0.76905,1.33667 -1.31836,-0.76905 c -0.26574,-0.15342 -0.5973,-0.0643 -0.75073,0.20142 l -0.14648,0.23804 c -0.0767,0.13287 -0.0916,0.28438 -0.0549,0.42114 z"
               style="color:#000000;display:inline;overflow:visible;visibility:visible;fill:url(#radialGradient4299);fill-opacity:1;fill-rule:nonzero;stroke:none;stroke-width:0.5859375;marker:none;enable-background:accumulate" />
            <path
               style="color:#000000;display:inline;overflow:visible;visibility:visible;fill:#000000;fill-opacity:1;fill-rule:nonzero;stroke:none;stroke-width:0.5859375;marker:none;enable-background:accumulate"
               d="m 329.25681,212.27399 c 0.0752,1.0642 0.65448,2.06314 1.64794,2.63671 1.58955,0.91772 3.6233,0.38106 4.54102,-1.20849 0.91772,-1.58955 0.38105,-3.6233 -1.2085,-4.54102 -1.58954,-0.91772 -3.62329,-0.38105 -4.54101,1.2085 -0.34415,0.59608 -0.48458,1.26577 -0.43945,1.9043 z"
               id="path6810" />
            <path
               id="path43608"
               d="m 329.25681,211.68805 c 0.0752,1.06421 0.65448,2.06315 1.64794,2.63672 1.58955,0.91772 3.6233,0.38105 4.54102,-1.2085 0.91772,-1.58954 0.38105,-3.62329 -1.2085,-4.54101 -1.58954,-0.91772 -3.62329,-0.38105 -4.54101,1.2085 -0.34415,0.59608 -0.48458,1.26577 -0.43945,1.90429 z"
               style="color:#000000;display:inline;overflow:visible;visibility:visible;fill:url(#radialGradient4313);fill-opacity:1;fill-rule:nonzero;stroke:none;stroke-width:0.5859375;marker:none;enable-background:accumulate" />
            <path
               id="path43610"
               d="m 330.04375,210.60773 c 0.0366,0.13676 0.12347,0.25287 0.25635,0.32959 l 1.33667,0.76904 -0.76905,1.31836 c -0.15342,0.26575 -0.0643,0.59731 0.20142,0.75073 l 0.23804,0.14649 c 0.26574,0.15343 0.5973,0.0643 0.75073,-0.20142 l 0.76904,-1.31836 1.31836,0.75074 c 0.26575,0.15342 0.59731,0.0643 0.75073,-0.20142 l 0.14649,-0.23804 c 0.15343,-0.26574 0.0643,-0.5973 -0.20142,-0.75073 l -1.31836,-0.76904 0.75073,-1.31836 c 0.15343,-0.26575 0.0643,-0.59731 -0.20141,-0.75073 l -0.23804,-0.14649 c -0.26574,-0.15343 -0.5973,-0.0643 -0.75073,0.20142 l -0.76904,1.33667 -1.31836,-0.76905 c -0.26575,-0.15342 -0.59731,-0.0643 -0.75074,0.20142 l -0.14648,0.23804 c -0.0767,0.13287 -0.0916,0.28438 -0.0549,0.42114 z"
               style="color:#000000;display:inline;overflow:visible;visibility:visible;fill:url(#radialGradient4310);fill-opacity:1;fill-rule:nonzero;stroke:none;stroke-width:0.5859375;marker:none;enable-background:accumulate" />
            <path
               id="path6814"
               d="m 308.78561,274.23688 c 0.0752,1.0642 0.65449,2.06314 1.64795,2.63672 1.58955,0.91772 3.6233,0.38105 4.54102,-1.2085 0.91772,-1.58954 0.38105,-3.62329 -1.2085,-4.54101 -1.58954,-0.91772 -3.62329,-0.38105 -4.54101,1.20849 -0.34415,0.59609 -0.48458,1.26578 -0.43946,1.9043 z"
               style="color:#000000;display:inline;overflow:visible;visibility:visible;fill:#000000;fill-opacity:1;fill-rule:nonzero;stroke:none;stroke-width:0.5859375;marker:none;enable-background:accumulate" />
            <path
               id="path43556"
               d="m 311.8801,270.04377 c -1.06421,0.0752 -2.06315,0.65448 -2.63672,1.64794 -0.91772,1.58955 -0.38105,3.6233 1.20849,4.54102 1.58955,0.91772 3.6233,0.38105 4.54102,-1.2085 0.91772,-1.58954 0.38105,-3.62329 -1.2085,-4.54101 -0.59608,-0.34415 -1.26577,-0.48458 -1.90429,-0.43945 z"
               style="color:#000000;display:inline;overflow:visible;visibility:visible;fill:url(#radialGradient4324);fill-opacity:1;fill-rule:nonzero;stroke:none;stroke-width:0.5859375;marker:none;enable-background:accumulate" />
            <path
               id="path43558"
               d="m 312.96042,270.83112 c -0.13677,0.0366 -0.25287,0.12347 -0.32959,0.25635 l -0.76904,1.33667 -1.31836,-0.76905 c -0.26575,-0.15342 -0.59731,-0.0643 -0.75074,0.20142 l -0.14648,0.23804 c -0.15343,0.26574 -0.0643,0.5973 0.20142,0.75073 l 1.31835,0.76904 -0.75073,1.31836 c -0.15343,0.26575 -0.0643,0.59731 0.20142,0.75073 l 0.23804,0.14649 c 0.26574,0.15343 0.5973,0.0643 0.75073,-0.20142 l 0.76904,-1.31836 1.31836,0.75073 c 0.26575,0.15343 0.5973,0.0643 0.75073,-0.20141 l 0.14649,-0.23804 c 0.15342,-0.26574 0.0643,-0.5973 -0.20142,-0.75073 l -1.33667,-0.76904 0.76904,-1.31836 c 0.15343,-0.26575 0.0643,-0.59731 -0.20141,-0.75074 l -0.23804,-0.14648 c -0.13287,-0.0767 -0.28438,-0.0916 -0.42114,-0.0549 z"
               style="color:#000000;display:inline;overflow:visible;visibility:visible;fill:url(#radialGradient4321);fill-opacity:1;fill-rule:nonzero;stroke:none;stroke-width:0.5859375;marker:none;enable-background:accumulate" />
            <path
               style="color:#000000;display:inline;overflow:visible;visibility:visible;fill:url(#radialGradient4332);fill-opacity:1;fill-rule:nonzero;stroke:none;stroke-width:0.5859375;marker:none;enable-background:accumulate"
               d="m 330.20115,234.03263 c 0.01,-0.37677 0.0112,-0.75813 0.0112,-1.13739 0,-22.48733 -17.20272,-40.70889 -38.41889,-40.70889 -21.21619,0 -38.4189,18.22156 -38.4189,40.70889 0,0.37926 0.002,0.76062 0.0112,1.13739 0.57247,-21.95745 17.5531,-39.57152 38.4077,-39.57152 20.85461,0 37.83524,17.61407 38.40772,39.57152 z"
               id="path4115" />
            <path
               id="path4036"
               d="m 330.20115,228.93042 c 0.01,0.37677 0.0112,0.75812 0.0112,1.13738 0,22.48734 -17.20272,40.7089 -38.41889,40.7089 -21.21619,0 -38.4189,-18.22156 -38.4189,-40.7089 0,-0.37926 0.002,-0.76061 0.0112,-1.13738 0.57247,21.95745 17.5531,39.57151 38.4077,39.57151 20.85461,0 37.83524,-17.61406 38.40772,-39.57151 z"
               style="color:#000000;display:inline;overflow:visible;visibility:visible;fill:url(#radialGradient4335);fill-opacity:1;fill-rule:nonzero;stroke:none;stroke-width:0.5859375;marker:none;enable-background:accumulate" />
          </g>
        </g>
      </g>
    </g>
  </g>
  <metadata
     id="metadata3241">
    <rdf:RDF>
      <cc:Work>
        <dc:format>image/svg+xml</dc:format>
        <dc:type
           rdf:resource="http://purl.org/dc/dcmitype/StillImage" />
        <cc:license
           rdf:resource="http://creativecommons.org/publicdomain/zero/1.0/" />
        <dc:publisher>
          <cc:Agent
             rdf:about="http://openclipart.org/">
            <dc:title>Open Clip Art Library</dc:title>
          </cc:Agent>
        </dc:publisher>
        <dc:title></dc:title>
        <dc:date>2012-03-15T18:05:46</dc:date>
        <dc:description>You can remove screws there is a holes :)</dc:description>
        <dc:source>http://openclipart.org/detail/168846/audio-speaker--by-keistutis</dc:source>
        <dc:creator>
          <cc:Agent>
            <dc:title>Keistutis</dc:title>
          </cc:Agent>
        </dc:creator>
        <dc:subject>
          <rdf:Bag>
            <rdf:li>Speaker audio.</rdf:li>
            <rdf:li>clip art</rdf:li>
            <rdf:li>clipart</rdf:li>
          </rdf:Bag>
        </dc:subject>
      </cc:Work>
      <cc:License
         rdf:about="http://creativecommons.org/publicdomain/zero/1.0/">
        <cc:permits
           rdf:resource="http://creativecommons.org/ns#Reproduction" />
        <cc:permits
           rdf:resource="http://creativecommons.org/ns#Distribution" />
        <cc:permits
           rdf:resource="http://creativecommons.org/ns#DerivativeWorks" />
      </cc:License>
    </rdf:RDF>
  </metadata>
</svg>
